<svg width="230" height="57" viewBox="0 0 230 57" fill="none" xmlns="http://www.w3.org/2000/svg">
<path d="M43.666 12.2854H36.7524V44.9675H43.666V12.2854Z" fill="#5F126D"/>
<path d="M26.7292 35.269H13.3208V44.9642H20.1175V40.2773H26.7292V35.269Z" fill="#5F126D"/>
<path d="M20.2344 12.2854H13.3208V31.3319L32.4614 31.3156V25.7426H20.2344V12.2854Z" fill="#5F126D"/>
<path d="M0.117188 0.5V56.5H56.1172V0.5H0.117188ZM51.1706 51.5534H5.08003V5.46285H51.1706V51.5534Z" fill="#5F126D"/>
<path d="M70.7136 27.9466H75.6311V18.8904H84.6998V27.9466H89.6173V5.38674H84.6998V14.314H75.6311V5.38674H70.7136V27.9466Z" fill="#5F126D"/>
<path d="M93.0585 27.9466H98.0718L100.115 22.8867H109.567L111.611 27.9466H116.752L107.172 5.2256H102.638L93.0585 27.9466ZM101.872 18.5037L104.841 11.1878L107.811 18.5037H101.872Z" fill="#5F126D"/>
<path d="M129.241 28.3333C133.552 28.3333 136.107 26.7864 138.406 24.3048L135.276 21.1142C133.52 22.7256 131.955 23.7569 129.401 23.7569C125.569 23.7569 122.919 20.5341 122.919 16.6667V16.6022C122.919 12.7348 125.633 9.57643 129.401 9.57643C131.636 9.57643 133.392 10.5433 135.117 12.1225L138.246 8.48066C136.17 6.41805 133.648 5 129.433 5C122.567 5 117.778 10.2532 117.778 16.6667V16.7311C117.778 23.209 122.663 28.3333 129.241 28.3333Z" fill="#5F126D"/>
<path d="M142.342 27.9466H147.26V21.0497L149.846 18.3425L156.776 27.9466H162.683L153.167 14.9586L162.268 5.38674H156.329L147.26 15.2486V5.38674H142.342V27.9466Z" fill="#5F126D"/>
<path d="M165.668 27.9466H181.729V23.4346H170.585V5.38674H165.668V27.9466Z" fill="#5F126D"/>
<path d="M183.522 27.9466H188.535L190.579 22.8867H200.031L202.075 27.9466H207.216L197.636 5.2256H193.102L183.522 27.9466ZM192.335 18.5037L195.305 11.1878L198.275 18.5037H192.335Z" fill="#5F126D"/>
<path d="M210.666 27.9466H221.299C226.344 27.9466 229.665 25.884 229.665 21.7587V21.6943C229.665 18.6648 228.068 17.1501 225.482 16.151C227.079 15.2486 228.42 13.8306 228.42 11.2845V11.2201C228.42 9.67311 227.909 8.41621 226.887 7.3849C225.61 6.09576 223.598 5.38674 221.043 5.38674H210.666V27.9466ZM215.455 14.5074V9.73757H220.309C222.385 9.73757 223.534 10.5755 223.534 12.058V12.1225C223.534 13.7983 222.161 14.5074 219.99 14.5074H215.455ZM215.455 23.5958V18.6326H221.139C223.662 18.6326 224.779 19.5672 224.779 21.082V21.1464C224.779 22.8223 223.47 23.5958 221.299 23.5958H215.455Z" fill="#5F126D"/>
<path d="M70.665 51.4347H73.0205V45.9237H79.7804V43.7579H73.0205V40.0645H80.6422V37.8988H70.665V51.4347Z" fill="#313131"/>
<path d="M89.5161 51.6667C93.6333 51.6667 96.5441 48.4761 96.5441 44.6667V44.6281C96.5441 40.8187 93.6716 37.6667 89.5544 37.6667C85.4371 37.6667 82.5263 40.8574 82.5263 44.6667V44.7054C82.5263 48.5148 85.3988 51.6667 89.5161 51.6667ZM89.5544 49.4817C86.8925 49.4817 84.9967 47.2966 84.9967 44.6667V44.6281C84.9967 41.9982 86.8542 39.8518 89.5161 39.8518C92.1779 39.8518 94.0737 42.0369 94.0737 44.6667V44.7054C94.0737 47.3353 92.2162 49.4817 89.5544 49.4817Z" fill="#313131"/>
<path d="M104.886 51.6474C108.39 51.6474 110.65 49.617 110.65 45.5756V37.8988H108.295V45.6916C108.295 48.1861 107.012 49.4623 104.924 49.4623C102.818 49.4623 101.535 48.1087 101.535 45.5949V37.8988H99.1793V45.6916C99.1793 49.617 101.401 51.6474 104.886 51.6474Z" fill="#313131"/>
<path d="M113.883 51.4347H116.2V41.8049L123.592 51.4347H125.565V37.8988H123.248V47.2579L116.066 37.8988H113.883V51.4347Z" fill="#313131"/>
<path d="M129.012 51.4347H134.011C138.224 51.4347 141.134 48.4761 141.134 44.6667V44.6281C141.134 40.8187 138.224 37.8988 134.011 37.8988H129.012V51.4347ZM131.368 49.269V40.0645H134.011C136.826 40.0645 138.664 42.0176 138.664 44.6667V44.7054C138.664 47.3546 136.826 49.269 134.011 49.269H131.368Z" fill="#313131"/>
<path d="M141.927 51.4347H144.34L145.718 48.1667H152.057L153.417 51.4347H155.906L150.008 37.8021H147.825L141.927 51.4347ZM146.58 46.059L148.878 40.6446L151.195 46.059H146.58Z" fill="#313131"/>
<path d="M159.778 51.4347H162.153V40.1032H166.404V37.8988H155.527V40.1032H159.778V51.4347Z" fill="#313131"/>
<path d="M169.036 51.4347H171.391V37.8988H169.036V51.4347Z" fill="#313131"/>
<path d="M181.376 51.6667C185.493 51.6667 188.404 48.4761 188.404 44.6667V44.6281C188.404 40.8187 185.531 37.6667 181.414 37.6667C177.297 37.6667 174.386 40.8574 174.386 44.6667V44.7054C174.386 48.5148 177.259 51.6667 181.376 51.6667ZM181.414 49.4817C178.752 49.4817 176.856 47.2966 176.856 44.6667V44.6281C176.856 41.9982 178.714 39.8518 181.376 39.8518C184.038 39.8518 185.934 42.0369 185.934 44.6667V44.7054C185.934 47.3353 184.076 49.4817 181.414 49.4817Z" fill="#313131"/>
<path d="M191.25 51.4347H193.567V41.8049L200.959 51.4347H202.931V37.8988H200.614V47.2579L193.433 37.8988H191.25V51.4347Z" fill="#313131"/>
</svg>
