<svg width="175" height="49" viewBox="0 0 175 49" fill="none" xmlns="http://www.w3.org/2000/svg">
<path d="M8.18586 9.9465C9.54404 9.67743 11.2465 9.38915 11.9735 9.31227C12.7004 9.21617 14.3072 9.1393 15.5124 9.12008C16.7175 9.12008 18.267 9.19695 18.9556 9.31227C19.6443 9.42758 20.8877 9.73509 21.7294 10.0234C22.5711 10.3117 23.3362 10.5231 23.451 10.5039C23.5658 10.5039 24.924 10.2156 26.5117 9.88884C28.7116 9.42758 30.0698 9.25461 32.3461 9.15852C34.6417 9.08164 35.732 9.12008 37.1285 9.36993C38.2571 9.56212 39.4622 9.92728 40.2848 10.3309C41.0308 10.6768 42.0447 11.3495 42.5803 11.83C43.2307 12.4065 43.7281 13.1176 44.1489 14.0209C44.5315 14.8474 44.8376 15.8852 44.9715 16.7885C45.0671 17.5765 45.1628 22.6119 45.1628 27.9932C45.1628 36.4881 45.1245 37.7565 44.8758 37.8334C44.7228 37.8911 42.6951 37.9295 40.3804 37.9295C36.3633 37.9295 36.172 37.9103 35.9807 37.5451C35.8659 37.2953 35.7894 33.5475 35.8085 27.4167C35.8085 20.8822 35.7512 17.4227 35.5981 16.9807C35.4833 16.6155 35.2155 16.1158 34.9669 15.866C34.7373 15.6161 34.2017 15.3278 33.7808 15.2317C33.36 15.1164 32.6331 15.078 32.1548 15.1357C31.6766 15.2125 30.8541 15.3663 30.3376 15.4816C29.8211 15.5969 29.0176 15.8468 27.7551 16.4041L27.6595 37.8334L23.2597 37.8911C19.2426 37.9295 18.8409 37.9103 18.6113 37.6028C18.42 37.3337 18.3818 35.1812 18.4009 27.4551C18.42 17.8455 18.42 17.6341 18.0183 16.7501C17.8079 16.2311 17.4253 15.7122 17.1958 15.5585C16.9471 15.4047 16.4497 15.2317 16.0863 15.1549C15.7228 15.0972 14.8046 15.1357 14.0777 15.251C13.3508 15.3663 12.356 15.5969 11.8778 15.7507C11.3996 15.9236 10.864 16.135 10.6918 16.2311C10.3666 16.3849 10.3475 17.1152 10.3475 27.0707C10.3475 36.3728 10.3092 37.7565 10.0605 37.8334C9.90749 37.8911 7.87979 37.9295 5.56515 37.9295C1.548 37.9295 1.35671 37.9103 1.16541 37.5451C1.05064 37.2953 0.974121 32.6442 0.974121 24.7644C0.974121 14.0017 1.01238 12.3297 1.26106 12.0798C1.41409 11.9261 2.50446 11.484 3.65222 11.1189C4.79998 10.7537 6.84681 10.2156 8.18586 9.9465Z" fill="#066CB7"/>
<path d="M50.3085 16.8462C48.9504 13.2137 47.8791 10.1771 47.9365 10.0618C48.013 9.9465 49.8112 9.86962 52.7188 9.86962C56.9846 9.86962 57.4246 9.90806 57.5777 10.2156C57.6733 10.3885 58.8019 14.1363 60.0645 18.5182C61.3461 22.9002 62.513 26.8016 62.9147 27.8395L63.1443 27.2629C63.2591 26.9554 64.2155 23.7074 65.2868 20.0557C66.3389 16.4041 67.4101 12.7333 67.6779 11.8876C67.9266 11.042 68.2518 10.2348 68.3666 10.1003C68.5387 9.90806 69.6482 9.8504 73.0341 9.86962C77.3573 9.86962 77.4912 9.88884 77.4912 10.254C77.4912 10.4654 76.6304 12.9062 75.5974 15.693C74.5645 18.4606 73.2254 21.9777 72.6515 23.5152C72.0777 25.0527 70.6621 28.762 69.4952 31.7794C68.3474 34.7968 67.1232 37.8718 66.7788 38.6022C66.4536 39.3517 65.7841 40.6394 65.2868 41.485C64.6938 42.5036 63.7755 43.6568 62.5704 44.8676C61.5757 45.8862 60.1601 47.1162 59.4141 47.6159C58.668 48.0964 57.9602 48.5 57.8263 48.5C57.7116 48.5 56.2195 47.3084 54.5361 45.867C52.8527 44.4063 51.4945 43.1379 51.5328 43.0226C51.5711 42.9072 52.0684 42.5613 52.6423 42.2538C53.2353 41.9463 54.1535 41.3313 54.7274 40.9085C55.2821 40.4856 55.9708 39.8322 56.2577 39.467C56.5447 39.1019 56.9273 38.4869 57.1186 38.1217C57.2907 37.7565 57.4438 37.1031 57.4438 36.6803C57.4438 36.1677 56.6658 33.8294 55.11 29.6653C53.8283 26.2251 51.6667 20.4593 50.3085 16.8462Z" fill="#066CB7"/>
<path fill-rule="evenodd" clip-rule="evenodd" d="M80.7432 18.4798C80.7432 8.87029 80.8006 0.894369 80.8579 0.740616C80.9536 0.490768 81.5849 0.45233 89.8296 0.548425L89.887 5.64149C89.9061 8.44747 90.0017 10.7922 90.0783 10.8883C90.1548 10.9652 90.5565 10.8883 90.9773 10.7153C91.3982 10.5424 92.2016 10.2733 92.7372 10.1388C93.3494 9.985 94.7267 9.86969 96.1422 9.86969C97.4622 9.86969 98.9351 9.96578 99.4325 10.0811C99.9049 10.169 100.602 10.3373 101.083 10.4536L101.211 10.4847C101.69 10.6 102.761 11.0421 103.603 11.4841C104.444 11.9069 105.592 12.6949 106.166 13.233C106.721 13.7519 107.543 14.7129 107.964 15.3471C108.385 15.9814 108.863 16.8462 109.016 17.269C109.129 17.5796 109.262 18.0145 109.37 18.3683C109.409 18.4961 109.445 18.6136 109.475 18.7105C109.571 19.0756 109.762 20.3249 109.896 21.4972C110.068 22.9195 110.087 24.1495 109.992 25.245C109.896 26.1483 109.724 27.3591 109.609 27.9356C109.494 28.5122 109.303 29.3002 109.208 29.6654C109.112 30.0305 108.672 31.0683 108.232 31.9716C107.62 33.2209 107.065 33.9897 105.879 35.2389C104.578 36.6034 104.024 37.0263 102.531 37.7758C101.537 38.2755 100.351 38.7944 99.8724 38.929C99.2794 39.1019 97.7108 39.1788 94.8032 39.1788C92.1251 39.1788 90.1739 39.0827 89.447 38.929C89.1914 38.8745 88.8825 38.8106 88.5711 38.7461C88.1134 38.6514 87.6502 38.5555 87.3428 38.4869C86.8071 38.3908 86.042 38.1986 85.6211 38.0833C85.2003 37.968 84.5116 37.7566 84.0908 37.6221C83.6699 37.5067 82.8474 37.1992 82.2735 36.9686C81.6996 36.7572 81.1066 36.4113 80.9727 36.2383C80.7814 35.9884 80.7432 32.2599 80.7432 18.4798ZM114.621 21.7086C114.525 12.2913 114.545 10.946 114.793 10.8114C114.946 10.7153 116.897 10.6384 119.097 10.6384C121.297 10.6384 123.248 10.7345 123.401 10.8306C123.65 10.9844 123.708 12.3682 123.88 30.5687L124.454 31.4912C124.817 32.0677 125.314 32.5674 125.793 32.8173C126.424 33.144 126.902 33.2209 128.471 33.2209C129.81 33.2209 130.69 33.1248 131.436 32.8749C132.01 32.6828 132.679 32.3945 133.349 31.9716V21.5933C133.349 12.4066 133.387 11.1766 133.655 10.9267C133.903 10.6961 134.649 10.6384 137.997 10.6384C140.235 10.6384 142.167 10.7153 142.301 10.7922C142.492 10.8883 142.569 13.5598 142.665 23.3231C142.799 35.4119 142.779 35.7386 142.416 36.123C142.225 36.3344 141.536 36.6611 140.905 36.8533C140.628 36.9376 140.333 37.0292 140.066 37.112C139.724 37.2182 139.429 37.3098 139.279 37.353C139.011 37.4299 138.456 37.5836 138.035 37.6989C137.665 37.8003 137.059 37.9462 136.593 38.0584L136.591 38.0588L136.409 38.1025L134.496 38.4869C133.923 38.583 132.832 38.7752 132.105 38.9097C131.321 39.0635 129.083 39.1596 126.653 39.1596C122.847 39.1596 122.445 39.1404 121.202 38.7175C120.456 38.4677 119.518 38.1025 119.097 37.8911C118.677 37.6605 117.95 37.18 117.491 36.7956C117.031 36.4113 116.362 35.6425 115.998 35.0851C115.654 34.547 115.233 33.7206 115.042 33.2593C114.774 32.5482 114.717 31.0683 114.621 21.7086ZM147.064 10.7538C146.892 10.7922 146.777 10.946 146.816 11.0613C146.835 11.1958 148.442 13.6558 150.335 16.5003L151.118 17.6635C152.721 20.0488 154.111 22.1155 154.391 22.4966C154.716 22.9771 154.965 23.5729 154.965 23.8996C154.965 24.3224 154.027 25.86 151.273 29.9536C150.377 31.2999 149.465 32.6614 148.686 33.8249C147.72 35.2692 146.957 36.4083 146.682 36.8341C145.859 38.0641 145.802 38.2371 146.108 38.3524C146.299 38.4293 148.442 38.4869 150.852 38.4869C154.123 38.5061 155.347 38.4485 155.596 38.2755C155.787 38.141 156.859 36.392 157.987 34.3932C159.116 32.3945 160.13 30.7224 160.225 30.684C160.321 30.6455 160.723 31.1068 161.105 31.7218C161.488 32.3368 162.502 34.0089 163.363 35.4311C164.223 36.8533 165.084 38.141 165.256 38.2755C165.505 38.4677 166.634 38.5061 170.211 38.4677C172.755 38.4293 174.897 38.3524 174.993 38.2755C175.07 38.1794 174.477 37.1416 173.673 35.9692C172.87 34.7776 170.976 31.9716 169.465 29.7614C167.954 27.532 166.442 25.3411 166.098 24.8606C165.754 24.3801 165.486 23.8612 165.486 23.7074C165.486 23.5537 165.754 23.0732 166.041 22.6504C166.347 22.2276 168.202 19.4985 170.153 16.5964C172.105 13.6943 173.711 11.1958 173.711 11.0613C173.711 10.946 173.578 10.7922 173.425 10.7345C173.271 10.6769 171.244 10.6384 168.929 10.6384C165.142 10.6384 164.682 10.6769 164.376 10.9844C164.204 11.1766 163.286 12.6372 162.33 14.2516C161.373 15.8468 160.551 17.1729 160.455 17.1729C160.378 17.1729 159.498 15.7699 158.485 14.0402C157.452 12.3297 156.533 10.8691 156.419 10.7922C156.304 10.7153 154.219 10.6577 151.808 10.6577C149.398 10.6769 147.256 10.7153 147.064 10.7538ZM89.9252 41.9656C90.0017 41.6004 90.1739 41.0046 90.3078 40.6587C90.5182 40.1013 90.633 40.0244 91.1495 40.0821C91.7042 40.1398 91.7425 40.1782 91.7425 41.7734H92.6033C93.1198 41.7734 93.6363 41.9079 93.9232 42.1001C94.325 42.4076 94.3632 42.5421 94.2484 43.3109C94.191 43.7914 93.9806 44.6947 93.7893 45.3289C93.445 46.4436 93.4259 46.4821 92.0294 46.5782L92.1442 45.771C92.2207 45.3097 92.3355 44.7908 92.4312 44.6178C92.5268 44.4256 92.6033 43.9644 92.6033 43.5992C92.6033 43.1379 92.5077 42.8881 92.259 42.8112C92.0868 42.7343 91.7616 42.7728 91.5512 42.8689C91.3025 43.0034 91.073 43.4262 90.9008 44.0989C90.7669 44.6755 90.4991 45.4634 90.3269 45.8671C90.0591 46.5205 89.9635 46.5974 89.447 46.5397C89.007 46.5013 88.8731 46.386 88.9114 46.0977C88.9305 45.8863 89.0261 45.3674 89.1409 44.9445C89.2245 44.575 89.3812 43.9998 89.496 43.5785L89.5426 43.407C89.6574 42.9842 89.8296 42.3307 89.9252 41.9656ZM101.843 40.332C101.747 40.5049 101.575 40.947 101.46 41.3506C101.377 41.5891 101.279 41.924 101.189 42.2309C101.135 42.4186 101.083 42.5958 101.039 42.7343C100.944 43.0995 100.714 43.9644 100.523 44.6562C100.351 45.3481 100.255 46.0592 100.312 46.2514C100.408 46.4628 100.657 46.5782 101.02 46.5782C101.498 46.5782 101.613 46.4821 101.709 46.04C101.766 45.7517 101.862 45.3866 101.919 45.2328C101.977 45.0791 102.187 44.2911 102.398 43.5031C102.53 43.0051 102.671 42.4381 102.781 41.996C102.845 41.7386 102.898 41.5234 102.933 41.389C103.029 41.0238 103.124 40.5626 103.124 40.3704C103.124 40.1398 102.971 40.0437 102.57 40.0437C102.264 40.0437 101.938 40.1782 101.843 40.332ZM103.813 42.5421C104.1 41.5428 104.406 40.5626 104.502 40.3704C104.597 40.1782 104.884 40.0437 105.229 40.0437C105.554 40.0437 105.822 40.159 105.86 40.2743C105.898 40.4088 105.86 40.7356 105.783 41.0046L105.699 41.2987C105.613 41.5991 105.497 42.0044 105.401 42.35C105.286 42.8304 105.114 43.4839 105.018 43.7914C104.98 43.9431 104.91 44.207 104.83 44.507C104.748 44.8152 104.656 45.1615 104.578 45.4634C104.272 46.5397 104.253 46.5782 103.66 46.5205C103.201 46.5013 103.01 46.3667 102.971 46.0977C102.933 45.8863 102.991 45.4058 103.105 45.0406C103.22 44.6755 103.545 43.5415 103.813 42.5421ZM117.127 40.332C116.783 40.4665 116.343 40.8509 116.113 41.1776C115.903 41.5043 115.558 41.8118 115.367 41.8695C115.157 41.9271 114.985 42.1193 114.985 42.2923C114.985 42.4845 115.061 42.7151 115.157 42.8304C115.272 42.9457 115.272 43.3301 115.176 43.7914L115.137 43.9628C115.042 44.3841 114.913 44.9595 114.812 45.3289C114.698 45.7517 114.449 46.3091 114.277 46.5589C114.216 46.6377 114.152 46.7222 114.09 46.8046C113.954 46.9836 113.826 47.1527 113.76 47.2316C113.665 47.3469 113.646 47.5968 113.703 47.7697C113.779 47.9619 113.99 48.1157 114.162 48.1157C114.353 48.1157 114.774 47.8466 115.099 47.5007C115.444 47.1547 115.788 46.6935 115.903 46.4821C116.018 46.2707 116.228 45.7133 116.381 45.2328C116.534 44.7523 116.725 44.0797 116.783 43.7337C116.878 43.2725 117.031 43.0803 117.471 42.9265C117.816 42.8112 118.045 42.5998 118.045 42.3884C118.026 42.2154 117.892 41.9656 117.701 41.8503C117.414 41.6388 117.433 41.562 118.045 41.0046C118.6 40.5049 118.657 40.3704 118.428 40.2166C118.275 40.1205 118.045 40.0437 117.95 40.0629C117.854 40.0629 117.471 40.1782 117.127 40.332ZM143.411 41.2352C143.487 40.947 143.621 40.5626 143.717 40.3704C143.812 40.1974 144.042 40.0437 144.252 40.0437C144.463 40.0437 144.75 40.0821 144.865 40.1398C145.037 40.2166 145.075 40.4473 144.96 40.9662C144.918 41.1374 144.867 41.3583 144.816 41.5828L144.816 41.5841L144.816 41.5853C144.752 41.864 144.688 42.1481 144.635 42.35L144.597 42.4964L144.567 42.611C144.476 42.9646 144.362 43.4075 144.272 43.6953C144.203 43.9571 144.115 44.2781 144.049 44.5168L144.049 44.5183L144.007 44.6698L143.985 44.7523C143.936 44.9297 143.875 45.2424 143.822 45.5088L143.793 45.6556C143.698 46.1169 143.525 46.2322 142.665 46.4821C142.129 46.6358 141.345 46.7703 140.943 46.7703C140.465 46.7703 140.044 46.6166 139.661 46.2899C139.202 45.9055 139.087 45.6556 139.087 45.0791C139.087 44.6947 139.279 43.9836 139.508 43.5031C139.757 43.0226 140.254 42.4461 140.618 42.1962C141.096 41.8887 141.555 41.7734 142.282 41.7734C143.239 41.7734 143.296 41.7349 143.411 41.2352ZM151.904 40.5626C151.77 40.8701 151.502 41.6965 151.33 42.4461C151.171 43.0701 150.932 43.9473 150.757 44.5895L150.661 44.9445C150.508 45.5788 150.412 46.213 150.469 46.3283C150.527 46.4628 150.795 46.5782 151.082 46.5782C151.541 46.5974 151.655 46.4628 151.923 45.771C152.095 45.3097 152.344 44.5602 152.478 44.0797C152.593 43.5992 152.784 42.8689 152.899 42.4461C152.994 42.0232 153.167 41.4851 153.262 41.2352C153.358 41.0046 153.396 40.6395 153.339 40.428C153.262 40.159 153.09 40.0437 152.688 40.0437C152.287 40.0437 152.076 40.1782 151.904 40.5626ZM154.008 42.5421C154.142 42.0617 154.372 41.3121 154.525 40.8509C154.754 40.1398 154.869 40.0437 155.366 40.0437C155.673 40.0437 155.959 40.159 156.017 40.2743C156.074 40.4088 155.979 41.0431 155.826 41.6773L155.729 42.032L155.728 42.0342C155.554 42.6763 155.315 43.5524 155.156 44.1758C154.984 44.9253 154.697 45.771 154.563 46.0592C154.372 46.4436 154.161 46.5974 153.76 46.5782C153.473 46.5782 153.205 46.4436 153.147 46.2899C153.09 46.1361 153.128 45.771 153.224 45.4634C153.306 45.2152 153.431 44.7531 153.538 44.3596L153.587 44.1758C153.702 43.7529 153.894 43.0226 154.008 42.5421ZM96.4674 42.1385C96.1231 42.3307 95.664 42.7536 95.4536 43.0418C95.2432 43.3493 94.9753 43.9067 94.8606 44.2719C94.6884 44.7908 94.7075 45.0983 94.918 45.598C95.071 45.9439 95.4153 46.3667 95.7023 46.5013C96.0083 46.655 96.4483 46.7703 96.7161 46.7703C96.9839 46.7703 97.4813 46.6358 97.8065 46.4628C98.1508 46.2899 98.6482 45.9631 98.8777 45.7325C99.1264 45.5211 99.4516 45.0983 99.6046 44.7908C99.7577 44.5025 99.8724 43.9259 99.8724 43.5031C99.8724 42.9457 99.7385 42.5998 99.3942 42.2539C99.0116 41.8695 98.7247 41.7734 97.9978 41.7734C97.4622 41.7734 96.85 41.9271 96.4674 42.1385ZM106.109 43.6953C106.415 43.1187 106.95 42.4653 107.314 42.2154C107.849 41.8695 108.251 41.7734 109.284 41.7734C110.26 41.7734 110.68 41.8503 110.948 42.1001C111.293 42.4461 111.293 42.4845 110.948 43.6953C110.863 43.9759 110.768 44.2913 110.661 44.6466L110.661 44.648C110.505 45.1684 110.322 45.7744 110.107 46.4821L108.576 46.6358C107.275 46.7511 106.969 46.7127 106.472 46.4244C106.109 46.213 105.841 45.8286 105.726 45.425C105.573 44.8484 105.63 44.5986 106.109 43.6953ZM119.671 42.2154C119.25 42.4653 118.715 42.9842 118.485 43.407C118.237 43.8298 118.045 44.5025 118.045 44.8869C118.045 45.4442 118.179 45.7517 118.619 46.1938C119.021 46.5974 119.384 46.7703 119.805 46.7703C120.149 46.7703 120.8 46.5974 121.24 46.386C121.795 46.1169 122.254 45.7133 122.636 45.0791C122.981 44.5409 123.21 43.9259 123.21 43.5415C123.21 43.1187 123.038 42.7536 122.636 42.35C122.177 41.8887 121.909 41.7734 121.24 41.7734C120.762 41.7734 120.13 41.9464 119.671 42.2154ZM124.128 43.7337C124.473 42.6382 124.76 42.0809 125.027 41.9656C125.238 41.8695 125.907 41.7926 126.5 41.7926C127.113 41.7734 127.648 41.8503 127.706 41.9656C127.763 42.0809 127.763 42.2923 127.706 42.4461C127.648 42.619 127.38 42.7343 126.979 42.7343C126.653 42.7343 126.233 42.8304 126.06 42.965C125.888 43.0995 125.601 43.7337 125.429 44.368C125.294 44.8158 125.159 45.3115 125.064 45.6589L125.064 45.66C125.025 45.8041 124.993 45.9227 124.97 46.0016C124.855 46.386 124.702 46.4821 124.167 46.4821C123.535 46.4821 123.497 46.4436 123.554 45.9055C123.593 45.598 123.841 44.6178 124.128 43.7337ZM132.086 42.1385C131.742 42.3307 131.264 42.8112 130.977 43.234C130.613 43.7722 130.479 44.2334 130.479 44.8869C130.479 45.6172 130.575 45.9055 130.958 46.2899C131.417 46.7511 131.512 46.7703 133.004 46.655C133.884 46.5782 134.649 46.4821 134.745 46.4052C134.822 46.3475 134.956 45.9824 135.051 45.6172L135.074 45.5315L135.074 45.5285C135.178 45.1326 135.37 44.3986 135.529 43.8298C135.702 43.234 135.835 42.6575 135.835 42.5421C135.835 42.4268 135.702 42.2154 135.549 42.0617C135.357 41.8695 134.879 41.7734 133.961 41.7734C133.081 41.7926 132.488 41.9079 132.086 42.1385ZM145.343 43.6953C145.649 43.0803 146.146 42.4653 146.529 42.1962C146.988 41.9079 147.485 41.7734 148.116 41.7734C148.882 41.7734 149.13 41.8695 149.609 42.35C149.934 42.6767 150.182 43.1379 150.182 43.407C150.182 43.6761 150.01 44.2142 149.819 44.5986C149.628 45.0022 149.245 45.5211 148.996 45.7325C148.767 45.9631 148.27 46.2899 147.925 46.4628C147.6 46.6358 147.141 46.7703 146.93 46.7703C146.72 46.7703 146.28 46.6358 145.974 46.4821C145.63 46.3091 145.285 45.9055 145.094 45.4634C144.807 44.7716 144.826 44.7139 145.343 43.6953ZM157.432 42.2154C157.069 42.446 156.591 43.0226 156.361 43.5031C156.151 43.9836 155.902 44.5986 155.845 44.8869C155.749 45.3289 155.864 45.5595 156.399 46.0977L157.069 46.7703C159.211 46.5974 159.958 46.5205 160.072 46.4628C160.206 46.4244 160.493 45.7517 160.704 44.983C160.914 44.2334 161.163 43.3686 161.277 43.0611C161.43 42.6382 161.392 42.4653 161.086 42.1578C160.78 41.8503 160.455 41.7734 159.403 41.7734C158.37 41.7734 157.949 41.8695 157.432 42.2154ZM92.6992 16.0002C92.3931 16.0771 91.6854 16.3462 91.1689 16.596L90.2124 17.0381V32.0674C92.2592 33.1052 92.814 33.2398 93.9426 33.2782C95.1669 33.3359 95.5495 33.2782 96.5251 32.8362C97.1563 32.5671 97.9598 32.0674 98.3041 31.7214C98.6675 31.3755 99.2032 30.5875 99.5284 29.9533C99.8536 29.3191 100.236 28.3197 100.389 27.7431C100.58 27.0512 100.676 25.6867 100.676 23.7071L100.695 20.7281C99.471 18.1143 99.1075 17.5954 98.4762 17.1534C98.0363 16.8267 97.405 16.423 97.0989 16.2693C96.7546 16.0963 95.8555 15.9426 94.8991 15.9041C94 15.8657 93.0053 15.9041 92.6992 16.0002ZM96.965 43.2529C96.7164 43.5604 96.4294 44.0985 96.3529 44.4637C96.2573 44.925 96.2764 45.2132 96.4677 45.3862C96.6016 45.54 96.9268 45.6169 97.1946 45.5592C97.5007 45.4823 97.7876 45.194 97.998 44.7712C98.1893 44.3868 98.3423 43.9063 98.3423 43.6949C98.3423 43.4835 98.3041 43.176 98.2467 43.0223C98.1893 42.8685 97.9789 42.734 97.7876 42.734C97.5772 42.734 97.2137 42.9646 96.965 43.2529ZM107.41 44.4061C107.467 44.0217 107.735 43.4835 108.003 43.2145C108.251 42.9454 108.634 42.734 108.863 42.734C109.074 42.734 109.303 42.8493 109.361 42.9646C109.418 43.0992 109.323 43.7142 109.17 44.31C108.902 45.2709 108.787 45.4439 108.328 45.54C108.003 45.6169 107.716 45.5592 107.563 45.3862C107.384 45.2197 107.333 44.8929 107.41 44.4061ZM120.303 43.0607C120.131 43.2529 119.901 43.6373 119.786 43.9256C119.671 44.2331 119.576 44.6751 119.576 44.9442C119.576 45.2645 119.703 45.4567 119.958 45.5208C120.169 45.5784 120.532 45.5015 120.762 45.367C121.011 45.2133 121.317 44.8097 121.47 44.4445C121.661 43.9832 121.68 43.6373 121.565 43.3106C121.47 43.0415 121.202 42.8109 120.991 42.7724C120.781 42.734 120.475 42.8685 120.303 43.0607ZM132.22 43.8295C132.335 43.5988 132.584 43.2529 132.737 43.0607C132.909 42.8685 133.215 42.734 133.425 42.7724C133.751 42.8109 133.846 42.9838 133.885 43.5988C133.91 44.1114 133.795 44.5726 133.54 44.9826C133.33 45.3286 133.005 45.6169 132.813 45.6169C132.641 45.6169 132.373 45.5208 132.239 45.3862C132.106 45.2517 132.01 44.9442 132.01 44.6943C132.01 44.4637 132.106 44.0793 132.22 43.8295ZM141.421 43.1568C141.192 43.4067 140.924 43.8871 140.809 44.2139C140.714 44.5598 140.656 44.9634 140.714 45.0787C140.752 45.2133 140.943 45.3862 141.135 45.4823C141.326 45.5592 141.613 45.5784 141.766 45.54C141.919 45.4823 142.206 45.0787 142.397 44.6175C142.588 44.1562 142.722 43.5796 142.684 43.3106C142.646 43.0031 142.493 42.8109 142.244 42.7724C142.014 42.734 141.651 42.907 141.421 43.1568ZM146.759 43.8295C146.873 43.5988 147.103 43.2529 147.275 43.0607C147.428 42.8877 147.715 42.734 147.906 42.734C148.117 42.734 148.346 42.9262 148.442 43.1568C148.518 43.4067 148.538 43.8103 148.461 44.0793C148.385 44.3484 148.232 44.752 148.117 44.9826C147.983 45.2325 147.734 45.4631 147.543 45.5208C147.371 45.5784 147.065 45.5784 146.873 45.5208C146.657 45.4567 146.548 45.2325 146.548 44.8481C146.548 44.5406 146.644 44.0793 146.759 43.8295ZM158.389 42.9838C158.217 43.1184 157.949 43.5028 157.777 43.8295C157.586 44.1754 157.452 44.6367 157.452 44.8481C157.452 45.0595 157.624 45.3093 157.834 45.4247C158.045 45.5208 158.389 45.5784 158.6 45.5208C158.867 45.4631 159.078 45.1172 159.288 44.4061C159.46 43.8679 159.556 43.2529 159.48 43.0607C159.422 42.8877 159.212 42.734 159.02 42.734C158.848 42.734 158.561 42.8493 158.389 42.9838Z" fill="black"/>
</svg>
