<svg width="194" height="57" viewBox="0 0 194 57" fill="none" xmlns="http://www.w3.org/2000/svg">
<path d="M17.1203 42.9676L3.51928 42.5588C1.82857 39.0869 0.940537 35.2792 0.920902 31.4176C0.918696 27.0784 2.04677 22.8136 4.19408 19.043L6.0379 25.8736C6.12684 26.211 6.32484 26.5095 6.6011 26.7227C6.87735 26.936 7.21635 27.0519 7.5653 27.0524C7.70696 27.0507 7.84791 27.0324 7.98529 26.9978L15.5915 24.9468L14.8383 26.1801C14.6633 26.4601 14.4995 26.7584 14.3469 27.0538C13.4016 28.9013 12.9078 30.9467 12.9063 33.022C12.9365 36.5897 14.3463 40.0073 16.8403 42.5588C16.8683 42.5924 17.0769 42.9242 17.1203 42.9676Z" fill="#0F51C9"/>
<path d="M47.4821 44.3172L47.2203 44.754L45.6803 42.9465L45.5851 42.7618L39.1955 30.7987L38.9155 30.9626L37.1697 31.9664C36.8035 32.176 36.3692 32.2316 35.962 32.1211C35.5549 32.0106 35.2082 31.7429 34.9983 31.377L34.9661 31.3112C34.7589 30.9471 34.704 30.5158 34.8135 30.1114L35.6423 27.0566L36.0903 25.3976L36.2148 24.6262L38.1371 17.055C38.2797 16.6167 38.5774 16.2454 38.9745 16.0113C39.3716 15.7772 39.8405 15.6963 40.2931 15.7838L46.7177 17.3868L46.8101 17.5142L47.3505 18.3388C47.4485 18.5026 47.5464 18.6776 47.6444 18.8414C49.902 22.713 51.0779 27.12 51.0493 31.6015C51.0208 36.0831 49.7888 40.4747 47.4821 44.3172Z" fill="#0F51C9"/>
<path d="M47.2203 44.7414C46.9403 45.1992 46.6421 45.6472 46.3145 46.084C46.0205 46.504 45.7027 46.9016 45.3765 47.3062C44.8532 47.9485 44.2966 48.563 43.7091 49.1472C41.3845 51.4781 38.6222 53.3268 35.5811 54.5872C32.54 55.8475 29.2798 56.4947 25.9879 56.4916H25.7919L31.5752 50.7082C31.7231 50.5607 31.8406 50.3855 31.9206 50.1926C32.0007 49.9997 32.0419 49.7929 32.0419 49.584C32.0419 49.3752 32.0007 49.1683 31.9206 48.9754C31.8406 48.7825 31.7231 48.6072 31.5752 48.4598L28.9013 45.7858C31.2457 45.2566 33.3983 44.09 35.1215 42.4146L35.2531 42.283C35.5583 41.9778 35.8537 41.6502 36.1267 41.3226C37.4129 39.9231 38.3598 38.2463 38.8939 36.4221C39.428 34.5979 39.535 32.6752 39.2067 30.803L45.8847 42.4132L47.2203 44.7414Z" fill="#0F51C9"/>
<path d="M31.5725 50.711L25.7891 56.4944H25.4503C20.8445 56.3956 16.3549 55.0298 12.4744 52.5471C8.59377 50.0643 5.47215 46.5606 3.45207 42.4202H19.2721V40.0822C19.2725 39.6627 19.4392 39.2606 19.7358 38.964C20.0324 38.6674 20.4346 38.5006 20.8541 38.5002H20.9311C21.1397 38.4989 21.3465 38.5399 21.5389 38.6205C21.7314 38.7011 21.9056 38.8197 22.0511 38.9692L25.5105 42.4286L29.3031 45.8838L31.9183 48.5088C32.5567 49.1192 32.1941 50.088 31.5725 50.711Z" fill="#0F51C9"/>
<path d="M30.0941 0.505577V0.645586L19.3463 19.3608L21.3763 20.5284C21.5576 20.6322 21.7167 20.7707 21.8445 20.9361C21.9723 21.1014 22.0662 21.2903 22.1209 21.4919C22.1757 21.6936 22.1901 21.9041 22.1635 22.1113C22.1368 22.3186 22.0696 22.5185 21.9657 22.6998L21.9335 22.7656C21.7233 23.1295 21.3783 23.3961 20.9731 23.5076L16.2481 24.7844L15.2135 25.1568L8.04128 27.3604C7.90128 27.3926 7.32168 27.821 7.19008 27.821C6.49008 27.821 5.8895 27.7734 5.7033 27.065L4.03029 19.365C4.17029 19.1242 4.47268 18.5684 4.62528 18.329L4.76528 18.0994L14.4169 2.35918L14.7991 1.73758C15.0957 1.35851 15.4751 1.05232 15.9082 0.842418C16.3413 0.632521 16.8168 0.5245 17.2981 0.526598H30.0941V0.505577Z" fill="#0F51C9"/>
<path d="M47.0565 17.8334L40.258 16.0008C39.852 15.8925 39.4198 15.9496 39.0558 16.1595C38.6918 16.3695 38.4259 16.7151 38.3163 17.1208L36.2653 24.727L36.0903 25.3822C36.0903 25.3822 30.3615 15.4198 27.5349 10.4988C26.6081 8.88321 25.9851 7.81497 25.9851 7.81497L30.0983 0.645571V0.505605H34.6483C35.1914 0.505932 35.7253 0.64545 36.199 0.910891C36.6728 1.17633 37.0706 1.5588 37.3545 2.02177C37.3545 2.03297 37.3657 2.033 37.3657 2.0442L37.8235 2.7862L47.0565 17.8334Z" fill="#0F51C9"/>
<path d="M74.6233 14.8976L74.8529 18.0952C75.7939 16.8922 77.0061 15.9289 78.3906 15.2841C79.7751 14.6393 81.2926 14.3313 82.8189 14.3852C84.0366 14.2898 85.2599 14.4732 86.3962 14.9212C87.5324 15.3692 88.5516 16.0703 89.3765 16.971C90.973 19.2225 91.7507 21.9527 91.5801 24.7074V42.6134H84.1811V24.8936C84.2936 23.6651 83.9259 22.4407 83.1549 21.4776C82.6866 21.0832 82.1441 20.7864 81.5594 20.6046C80.9747 20.4228 80.3595 20.3598 79.7501 20.4192C78.7974 20.3794 77.8527 20.6076 77.0231 21.0778C76.1936 21.548 75.5126 22.2414 75.0573 23.0792V42.6218H67.6611V14.9018H74.6233V14.8976Z" fill="#0F51C9"/>
<path d="M116.61 34.954C116.608 34.5076 116.482 34.0705 116.244 33.6924C116.007 33.3143 115.669 33.0102 115.267 32.8148C113.904 32.1357 112.448 31.6638 110.946 31.4148C104.355 30.0288 101.06 27.2288 101.059 23.0148C101.052 21.8197 101.326 20.6397 101.858 19.5698C102.391 18.4999 103.167 17.5699 104.125 16.8547C106.425 15.1217 109.257 14.2458 112.134 14.3782C115.15 14.2261 118.128 15.1034 120.58 16.866C121.585 17.6121 122.396 18.5877 122.947 19.7115C123.497 20.8353 123.771 22.0745 123.744 23.3256H116.345C116.361 22.8408 116.278 22.3579 116.102 21.906C115.926 21.4541 115.66 21.0426 115.321 20.6964C114.883 20.3201 114.375 20.0348 113.826 19.8569C113.277 19.679 112.698 19.6122 112.123 19.6604C111.09 19.5961 110.068 19.893 109.23 20.5003C108.904 20.7542 108.642 21.0806 108.463 21.4536C108.285 21.8266 108.197 22.2361 108.204 22.6494C108.206 23.0542 108.315 23.4513 108.52 23.8003C108.725 24.1493 109.019 24.4377 109.372 24.636C110.596 25.2954 111.925 25.7382 113.3 25.945C114.882 26.2458 116.439 26.6617 117.96 27.1896C121.866 28.6194 123.822 31.1035 123.83 34.6418C123.847 35.8548 123.559 37.0527 122.99 38.1246C122.422 39.1964 121.593 40.1076 120.579 40.7738C118.099 42.4274 115.157 43.2492 112.179 43.1202C110.051 43.1606 107.939 42.7364 105.992 41.877C104.301 41.1373 102.836 39.9625 101.747 38.4722C100.75 37.1188 100.211 35.4828 100.207 33.8018H107.224C107.223 34.3834 107.355 34.9575 107.608 35.481C107.861 36.0046 108.23 36.4639 108.686 36.8244C109.748 37.571 111.03 37.9398 112.326 37.8716C113.457 37.9465 114.584 37.6639 115.546 37.0637C115.883 36.8269 116.157 36.5105 116.343 36.1424C116.528 35.7743 116.62 35.3661 116.61 34.954Z" fill="#0F51C9"/>
<path d="M149.569 39.7979C148.649 40.9013 147.485 41.7762 146.169 42.3536C144.853 42.931 143.421 43.1954 141.985 43.1257C140.735 43.2113 139.48 43.0265 138.307 42.5839C137.134 42.1413 136.07 41.4513 135.187 40.5609C133.487 38.4418 132.632 35.768 132.787 33.0555V14.8975H140.185V32.8259C140.185 35.7169 141.494 37.1575 144.136 37.1575C145.159 37.2651 146.191 37.0751 147.108 36.6105C148.025 36.1458 148.789 35.4262 149.308 34.5381V14.8975H156.739V42.6175H149.767L149.569 39.7979Z" fill="#0F51C9"/>
<path d="M167.575 28.5057C167.525 25.9636 168.071 23.4451 169.168 21.1515C170.164 19.0699 171.755 17.3305 173.74 16.1535C175.846 14.944 178.241 14.3326 180.669 14.3853C182.347 14.3192 184.021 14.5893 185.593 15.1795C187.165 15.7698 188.604 16.6683 189.823 17.8223C192.281 20.3163 193.697 23.6519 193.784 27.1519L193.839 29.0503C194.018 32.7934 192.744 36.4609 190.281 39.2857C187.71 41.7554 184.284 43.1356 180.719 43.1377C177.154 43.1398 173.727 41.7636 171.153 39.2969C168.655 36.4055 167.376 32.6583 167.584 28.8431V28.5043L167.575 28.5057ZM174.983 29.0293C174.847 31.1488 175.365 33.259 176.467 35.0745C176.964 35.7231 177.602 36.2493 178.334 36.6124C179.066 36.9755 179.871 37.1659 180.688 37.169C181.504 37.1721 182.311 36.9879 183.045 36.6304C183.78 36.2728 184.422 35.7515 184.923 35.1067C186.09 33.1117 186.619 30.8083 186.441 28.5043C186.57 26.3947 186.04 24.2972 184.923 22.5025C184.453 21.816 183.815 21.2606 183.071 20.8883C182.326 20.516 181.499 20.3392 180.667 20.3745C179.845 20.3414 179.028 20.5184 178.293 20.8888C177.558 21.2592 176.93 21.8107 176.467 22.4913C175.328 24.4724 174.811 26.7504 174.983 29.0293Z" fill="#0F51C9"/>
</svg>
