<svg width="200" height="49" viewBox="0 0 200 49" fill="none" xmlns="http://www.w3.org/2000/svg">
<path d="M105.32 41.7401L103.966 34.1942C106.581 34.6492 108.953 35.0605 111.581 35.5163C110.961 36.1761 110.449 36.5724 110.15 37.0893C109.958 37.4213 109.883 38.1061 110.091 38.3322C112.657 41.1238 115.288 43.9013 119.267 44.6465C124.421 45.6133 128.939 44.3655 132.36 40.3187C136.277 35.6864 136.734 29.7623 133.447 24.7525C130.935 20.9228 127.269 18.9081 122.512 18.7232C117.716 18.5367 114.365 20.9217 111.232 24.0611C105.453 29.8516 99.6071 35.5762 93.7583 41.2963C91.3831 43.6201 88.9612 45.8701 85.5847 46.8065C77.9113 48.937 68.8472 45.3544 66.0116 37.1301C63.0549 28.5572 67.548 19.8496 75.5157 17.1137C81.2808 15.1333 86.7593 15.998 91.3992 20.1698C93.9195 22.4365 96.3038 24.8505 98.7148 27.2328C99.0893 27.6021 99.4544 28.1436 99.4883 28.6287C99.5112 28.9606 99.0034 29.5427 98.6389 29.6307C98.3946 29.6629 98.1462 29.6435 97.9099 29.5738C97.6737 29.5041 97.455 29.3858 97.2682 29.2264C95.2985 27.3908 93.3865 25.4952 91.4631 23.6117C89.4268 21.6173 87.3149 19.7451 84.3977 19.0989C75.7794 17.191 68.8342 22.5583 67.7905 29.9175C66.7316 37.3859 71.4731 43.672 78.9389 44.8203C83.2432 45.4843 87.1087 44.2344 90.297 41.0904C97.3632 34.1235 104.491 27.2166 111.602 20.2928C114.534 17.438 118.186 16.0943 122.192 16.1334C130.051 16.2093 136.321 21.3531 137.796 28.8191C139.424 37.061 134.382 44.9902 126.131 46.9551C120.559 48.2831 115.46 47.1016 111.232 43.0564C110.347 42.2088 109.47 41.356 108.589 40.5051C107.891 39.8312 107.233 39.7096 106.558 40.5651C106.264 40.9381 105.865 41.2298 105.32 41.7401Z" fill="#EB6630"/>
<path d="M198.997 37.8989C197.978 40.4829 196.678 42.7114 194.627 44.4289C190.615 47.7877 185.919 48.817 180.766 48.4069C174.4 47.8992 167.639 43.2739 166.399 34.4442C165.12 25.3335 170.462 17.3766 179.66 15.6524C189.066 13.8896 198.17 19.187 199.751 29.0488C199.888 29.9012 199.9 30.7708 199.986 31.631C200.065 32.4274 199.768 32.705 198.912 32.7027C190.008 32.6767 181.104 32.6932 172.199 32.6975C171.671 32.6975 171.143 32.6934 170.616 32.7006C169.356 32.7186 169.177 32.9218 169.347 34.1111C169.792 37.1258 171.253 39.9028 173.493 41.9909C175.732 44.079 178.619 45.3556 181.683 45.6133C187.833 46.1507 192.465 43.8344 195.547 38.5063C195.757 38.1429 196.32 37.8327 196.756 37.7767C197.432 37.6878 198.14 37.8376 198.997 37.8989ZM182.979 29.8497V29.8692C187.16 29.8692 191.343 29.8989 195.524 29.852C196.91 29.8364 196.963 29.6307 196.607 28.2805C195.019 22.2428 188.612 17.095 181.193 18.2411C175.233 19.1623 170.804 23.0793 169.491 28.8069C169.286 29.6985 169.586 29.8526 170.328 29.852C174.545 29.8483 178.762 29.8473 182.979 29.8497Z" fill="#152DA0"/>
<path d="M43.0388 26.4059C42.8884 26.7435 42.713 27.0722 42.5909 27.4192C40.3397 33.8292 38.0706 40.2338 35.8768 46.6629C35.5614 47.5856 35.0455 47.7245 34.2407 47.6749C33.4359 47.6253 32.6587 47.8717 32.2365 46.7236C28.6248 36.8916 24.9406 27.0862 21.2823 17.2711C21.164 16.9546 21.0942 16.6209 20.957 16.1385C21.9209 16.1385 22.7705 16.0389 23.5731 16.1853C23.9239 16.2486 24.3107 16.7667 24.4601 17.1618C25.8781 20.8889 27.249 24.6341 28.6333 28.3729C30.2586 32.7634 31.885 37.1541 33.5126 41.5449C33.6388 41.8889 33.8778 42.181 34.1913 42.3745C34.5829 41.3645 35.0014 40.363 35.3619 39.3423C37.4984 33.2943 39.6253 27.2426 41.7426 21.1872C41.9988 20.4529 42.4591 20.1651 43.2406 20.1699C44.0383 20.1764 44.4848 20.4015 44.7747 21.2283C47.1042 27.866 49.491 34.4835 51.865 41.1067C52.0154 41.5252 52.207 41.9318 52.4893 42.6069C52.7788 42.0238 53.0017 41.6633 53.145 41.2755C56.1577 33.1442 59.1735 25.0139 62.1924 16.8847C62.2821 16.7039 62.4109 16.5449 62.5696 16.4191C62.7283 16.2932 62.9131 16.2035 63.1108 16.1564C63.8233 16.0444 64.5668 16.1229 65.4529 16.1229C65.3819 16.5712 65.2826 17.0148 65.1558 17.4509C62.4321 24.7644 59.7017 32.0741 56.9645 39.3799C56.0428 41.8476 55.0988 44.3072 54.237 46.7952C53.9936 47.4971 53.6305 47.7469 52.9361 47.6699C52.7267 47.6382 52.5136 47.6382 52.3042 47.6699C51.3212 47.8621 50.8907 47.4122 50.5775 46.5116C48.4363 40.359 46.245 34.2216 44.0632 28.081C43.8597 27.5092 43.6098 26.9537 43.3804 26.3899L43.0388 26.4059Z" fill="#152DA0"/>
<path d="M10.0788 15.3174C14.6068 15.3021 17.8264 17.6802 18.7928 21.8007C18.9363 22.4784 18.9875 23.1722 18.945 23.8634C18.9355 24.0835 18.5882 24.4 18.3355 24.4748C17.9807 24.5805 17.5656 24.4704 17.183 24.5126C16.2341 24.6155 15.9643 24.1236 15.9286 23.288C15.755 19.2378 12.5903 17.7908 9.48131 18.1141C7.21454 18.3485 5.27516 19.3186 4.47903 21.5452C3.2187 25.0703 4.71892 27.4586 8.36902 28.8168C10.1334 29.4731 11.9864 29.894 13.7659 30.5136C17.649 31.865 19.5489 34.613 19.7934 38.6383C20.1223 44.0547 15.8677 48.6698 9.86548 48.4952C5.10683 48.3556 1.07532 45.5199 0.224986 41.0385C0.104703 40.3567 0.0304233 39.6676 0.00264322 38.976C-0.0302743 38.3573 0.241936 37.9831 0.949958 38.0548C1.26582 38.0813 1.58345 38.0798 1.89905 38.0503C2.53986 38.0011 2.81759 38.2212 2.90254 38.9096C3.19052 41.2461 3.88809 43.3969 6.12156 44.688C9.40956 46.5879 15.2176 46.0885 16.6508 40.9417C17.5499 37.7142 16.1841 34.5839 13.039 33.3196C11.003 32.5016 8.84859 31.9766 6.77498 31.2428C4.12285 30.3054 2.05536 28.6905 1.41356 25.8462C0.0933151 20.0106 3.9762 15.3384 10.0788 15.3174Z" fill="#152DA0"/>
<path d="M137.939 16.1217C138.781 16.1217 139.414 16.167 140.037 16.1097C140.787 16.0406 141.155 16.3318 141.438 17.0248C143.235 21.4203 145.081 25.7985 146.91 30.1812C148.566 34.1509 150.222 38.1205 151.879 42.0899C152.031 42.4753 152.284 42.8137 152.612 43.0702C153.068 42.0573 153.549 41.053 153.978 40.0301C157.177 32.384 160.365 24.7336 163.543 17.0791C163.842 16.3566 164.229 16.0314 165.024 16.1068C165.647 16.1671 166.28 16.1187 167.066 16.1187C166.991 16.4397 166.9 16.7566 166.791 17.068C163.985 23.79 161.175 30.5107 158.362 37.2301C157.081 40.3005 155.821 43.3803 154.551 46.4564C154.116 47.5091 151.97 48.1868 151.035 47.5358C150.835 47.3969 150.743 47.0844 150.639 46.837C146.529 37.0192 142.424 27.1986 138.323 17.3754C138.182 17.0354 138.105 16.6671 137.939 16.1217Z" fill="#152DA0"/>
<path d="M93.4591 14.0231C93.4591 12.0256 93.4571 10.296 93.4591 8.56521C93.4624 6.27221 93.4473 0.5 93.4473 0.5C93.4473 0.5 93.932 0.52857 94.7029 0.526031C97.4819 0.513012 100.261 0.505118 103.041 0.502384C105.218 0.498283 107.395 0.500763 109.652 0.500763V14.0244C108.265 13.437 105.853 12.4183 105.853 12.4183L101.55 10.7869L97.1863 12.4907C97.1863 12.4907 94.8278 13.4613 93.4591 14.0231Z" fill="#152DA0"/>
</svg>
