<svg width="224" height="49" viewBox="0 0 224 49" fill="none" xmlns="http://www.w3.org/2000/svg">
<path d="M39.1245 0.500658H3.00749C2.71386 0.501434 2.42328 0.560174 2.15241 0.673529C1.88155 0.786885 1.63574 0.952609 1.42908 1.1612C1.22242 1.36979 1.05899 1.61717 0.948165 1.88908C0.837337 2.16098 0.781294 2.4521 0.783253 2.74572V9.75886C0.781489 10.0529 0.837872 10.3443 0.949159 10.6165C1.06045 10.8886 1.22444 11.136 1.43171 11.3445C1.63897 11.553 1.88542 11.7185 2.15688 11.8314C2.42833 11.9443 2.71943 12.0024 3.01343 12.0024H14.5583V46.261C14.5572 46.5546 14.614 46.8456 14.7255 47.1172C14.8371 47.3888 15.0012 47.6357 15.2084 47.8437C15.4156 48.0518 15.6618 48.2168 15.933 48.3295C16.2042 48.4421 16.4949 48.5001 16.7885 48.5001H25.4193C25.7129 48.5001 26.0037 48.4421 26.2748 48.3295C26.546 48.2168 26.7922 48.0518 26.9994 47.8437C27.2067 47.6357 27.3707 47.3888 27.4823 47.1172C27.5938 46.8456 27.6507 46.5546 27.6495 46.261V11.9965H39.126C39.4196 11.9965 39.7103 11.9385 39.9815 11.8259C40.2527 11.7132 40.4989 11.5482 40.7061 11.3402C40.9133 11.1321 41.0774 10.8852 41.189 10.6136C41.3005 10.342 41.3573 10.051 41.3562 9.75741V2.74572C41.3581 2.45147 41.3018 2.15974 41.1906 1.88735C41.0793 1.61496 40.9152 1.36726 40.7077 1.15857C40.5003 0.94988 40.2536 0.784315 39.9819 0.671397C39.7101 0.558479 39.4188 0.500455 39.1245 0.500658Z" fill="#D91B23"/>
<path d="M132.165 45.1383L124.007 30.8518C126.149 29.3268 127.879 27.2941 129.042 24.9359C130.254 22.5123 130.875 19.8367 130.856 17.1273C130.845 14.3361 130.129 11.593 128.775 9.15214C127.411 6.61108 125.423 4.45941 122.997 2.90022C120.563 1.30939 117.713 0.474425 114.805 0.500525H95.1332C94.8396 0.500523 94.5488 0.558494 94.2776 0.671128C94.0065 0.783762 93.7603 0.948855 93.5531 1.15689C93.3459 1.36493 93.1817 1.61184 93.0702 1.88345C92.9586 2.15506 92.9018 2.44602 92.903 2.73964V46.2549C92.9018 46.5485 92.9586 46.8395 93.0702 47.1111C93.1817 47.3827 93.3459 47.6296 93.5531 47.8376C93.7603 48.0457 94.0065 48.2108 94.2776 48.3234C94.5488 48.436 94.8396 48.494 95.1332 48.494H103.78C104.074 48.494 104.365 48.436 104.636 48.3234C104.907 48.2108 105.153 48.0457 105.36 47.8376C105.568 47.6296 105.732 47.3827 105.843 47.1111C105.955 46.8395 106.012 46.5485 106.011 46.2549V33.7585H111.315L119.072 47.3685C119.266 47.7103 119.547 47.9945 119.886 48.1923C120.226 48.39 120.612 48.4941 121.005 48.494H130.242C130.633 48.4908 131.017 48.3851 131.355 48.1876C131.692 47.99 131.972 47.7075 132.167 47.368C132.361 47.0286 132.463 46.6441 132.463 46.2529C132.463 45.8617 132.36 45.4774 132.165 45.1383ZM116.553 20.8472C116.32 21.2546 115.989 21.5976 115.59 21.8454C115.191 22.0933 114.737 22.2382 114.268 22.2671H106.009V11.9949H113.934C114.429 12.0238 114.911 12.1669 115.342 12.4129C115.773 12.659 116.141 13.0013 116.418 13.4133C117.22 14.4816 117.624 15.796 117.561 17.1302C117.623 18.4444 117.271 19.7446 116.553 20.8472Z" fill="#D91B23"/>
<path d="M170.214 0.500658H161.065C160.635 0.502196 160.214 0.627933 159.854 0.86269C159.494 1.09745 159.21 1.43124 159.035 1.82392L150.895 20.101L142.949 1.84175C142.776 1.44514 142.492 1.10745 142.13 0.869859C141.768 0.632263 141.345 0.50503 140.913 0.503652H131.825C131.443 0.505858 131.068 0.605761 130.736 0.793904C130.403 0.982048 130.124 1.25214 129.926 1.5785C129.727 1.90485 129.615 2.27663 129.601 2.65842C129.587 3.04021 129.67 3.41934 129.844 3.75972L144.381 32.477V46.2565C144.38 46.5501 144.437 46.8411 144.549 47.1127C144.66 47.3843 144.824 47.6312 145.031 47.8393C145.239 48.0473 145.485 48.2124 145.756 48.325C146.027 48.4377 146.318 48.4956 146.611 48.4956H155.192C155.485 48.4956 155.776 48.4377 156.047 48.325C156.318 48.2124 156.565 48.0473 156.772 47.8393C156.979 47.6312 157.143 47.3843 157.255 47.1127C157.366 46.8411 157.423 46.5501 157.422 46.2565V32.6093L172.204 3.76566C172.38 3.42446 172.465 3.04358 172.452 2.65974C172.439 2.2759 172.326 1.902 172.127 1.574C171.927 1.24601 171.646 0.974992 171.311 0.787008C170.976 0.599023 170.598 0.5004 170.214 0.500658Z" fill="#D91B23"/>
<path d="M58.8481 18.2187V2.74572C58.8493 2.4521 58.7924 2.16114 58.6809 1.88953C58.5693 1.61792 58.4053 1.37101 58.1981 1.16297C57.9909 0.954932 57.7446 0.789839 57.4734 0.677204C57.2022 0.56457 56.9116 0.506599 56.6179 0.506601H47.9604C47.6668 0.506599 47.376 0.56457 47.1048 0.677204C46.8337 0.789839 46.5874 0.954932 46.3802 1.16297C46.173 1.37101 46.0089 1.61792 45.8974 1.88953C45.7858 2.16114 45.729 2.4521 45.7302 2.74572V46.261C45.729 46.5546 45.7858 46.8456 45.8974 47.1172C46.0089 47.3888 46.173 47.6357 46.3802 47.8437C46.5874 48.0518 46.8337 48.2168 47.1048 48.3295C47.376 48.4421 47.6668 48.5001 47.9604 48.5001H56.6179C56.9116 48.5001 57.2022 48.4421 57.4734 48.3295C57.7446 48.2168 57.9909 48.0518 58.1981 47.8437C58.4053 47.6357 58.5693 47.3888 58.6809 47.1172C58.7924 46.8456 58.8493 46.5546 58.8481 46.261V29.7086H74.8206V46.2551C74.8195 46.5487 74.8763 46.8396 74.9879 47.1112C75.0994 47.3828 75.2634 47.6297 75.4706 47.8378C75.6779 48.0458 75.9242 48.2109 76.1954 48.3235C76.4665 48.4362 76.7572 48.4941 77.0508 48.4941H85.7039C85.9975 48.4941 86.2883 48.4362 86.5595 48.3235C86.8306 48.2109 87.0769 48.0458 87.2841 47.8378C87.4913 47.6297 87.6554 47.3828 87.7669 47.1112C87.8785 46.8396 87.9353 46.5487 87.9341 46.2551V18.2187H58.8481ZM85.7054 0.500657H77.0524C76.7587 0.500655 76.468 0.558626 76.1968 0.67126C75.9256 0.783895 75.6794 0.948988 75.4722 1.15702C75.265 1.36506 75.1009 1.61198 74.9893 1.88358C74.8778 2.15519 74.821 2.44615 74.8222 2.73978V12.5734H87.9356V2.74572C87.9367 2.4521 87.8799 2.16114 87.7684 1.88953C87.6568 1.61792 87.4927 1.37101 87.2855 1.16297C87.0783 0.954932 86.8321 0.789839 86.5609 0.677204C86.2898 0.56457 85.999 0.506599 85.7054 0.506601V0.500657Z" fill="#D91B23"/>
<path d="M223.801 37.0771V46.2371C223.801 46.8353 223.564 47.409 223.141 47.832C222.718 48.255 222.144 48.4926 221.546 48.4926H178.069C177.471 48.4926 176.897 48.255 176.474 47.8321C176.051 47.4091 175.813 46.8354 175.812 46.2371V2.75906C175.812 2.16048 176.05 1.58641 176.473 1.16315C176.897 0.739892 177.471 0.502109 178.069 0.502109H186.736C187.334 0.502109 187.908 0.739892 188.332 1.16315C188.755 1.58641 188.993 2.16048 188.993 2.75906V35.3197H222.044C222.51 35.3209 222.956 35.5064 223.285 35.8357C223.615 36.165 223.8 36.6113 223.801 37.0771Z" fill="#1A1A1A"/>
<path d="M206.817 17.4857H221.546C222.144 17.4857 222.718 17.7235 223.141 18.1467C223.565 18.57 223.802 19.144 223.802 19.7426V28.4091C223.802 29.0074 223.564 29.5811 223.141 30.004C222.718 30.427 222.144 30.6646 221.546 30.6646H193.639V2.75761C193.639 2.46129 193.697 2.16785 193.81 1.89411C193.924 1.62037 194.09 1.37166 194.3 1.1622C194.509 0.95274 194.758 0.786653 195.032 0.673393C195.306 0.560133 195.599 0.501914 195.895 0.50211H204.562C205.16 0.50211 205.734 0.739714 206.157 1.16265C206.58 1.58559 206.819 2.15929 206.819 2.75761L206.817 17.4857Z" fill="#D91B23"/>
</svg>
